<svg version="1.1" id="Layer_1" xmlns="http://www.w3.org/2000/svg" xmlns:xlink="http://www.w3.org/1999/xlink" x="0px" y="0px" viewBox="0 0 200 200" xml:space="preserve"><style type="text/css">.st0{fill:#B0A896;}.st1{fill:#968A71;}.st2{fill:#FFFFFF;}</style><g id="D20"><polygon class="st0" points="99.9 196 16 147.6 16 50.8 99.8 2.3 183.6 50.7 183.7 147.5 "/><polyline class="st1" points="103.6 44 181.6 52.1 159.3 131.9 100.6 45.1 "/><polygon class="st1" points="99.8 5.3 99.5 42 16.1 50.8 99.7 2.4 "/><polygon class="st1" points="183.7 147.6 99.8 196 159.7 135.1 180.6 145.6 "/><polygon class="st1" points="16.2 147.9 99.8 195.9 48.3 136.1 19.7 146.5 "/><path class="st2" d="M183.6 50.7l-81.6-10L99.8 2.3l-0.8 38.4L16 50.8l29.5 83.6L16 147.6 47 137.1 99.9 196l60.3-58.8 23.5 10.3 -21.9-13L183.6 50.7zM18.1 52.1L97.7 44l-49.8 88L18.1 52.1zM100 193.7l-49.1-56.8h105.3L100 193.7zM50.4 133.7l50.2-88.6 56.1 88.6H50.4zM159.3 131.9L103.6 44l78.1 8.1L159.3 131.9z"/><path class="st2" d="M86.1 116.5h11.2c1.1 0 2 0.2 2.5 0.7 0.6 0.5 0.9 1.1 0.9 1.9 0 0.7-0.2 1.3-0.7 1.8 -0.5 0.5-1.2 0.7-2.1 0.7H82.1c-1.1 0-1.9-0.3-2.5-0.9 -0.6-0.6-0.9-1.3-0.9-2.1 0-0.5 0.2-1.2 0.6-2 0.4-0.8 0.8-1.5 1.3-2 1.9-2 3.6-3.6 5.1-5.1 1.5-1.4 2.6-2.3 3.3-2.8 1.2-0.8 2.1-1.7 2.9-2.5 0.8-0.8 1.4-1.7 1.8-2.6 0.4-0.9 0.6-1.7 0.6-2.6 0-0.9-0.2-1.7-0.7-2.4 -0.4-0.7-1-1.3-1.8-1.7 -0.7-0.4-1.6-0.6-2.4-0.6 -1.9 0-3.3 0.8-4.4 2.5 -0.1 0.2-0.4 0.8-0.7 1.8 -0.3 1-0.7 1.7-1.1 2.2 -0.4 0.5-1 0.8-1.8 0.8 -0.7 0-1.3-0.2-1.8-0.7 -0.5-0.5-0.7-1.1-0.7-1.9 0-1 0.2-2 0.7-3.1 0.4-1.1 1.1-2 2-2.9 0.9-0.9 2-1.6 3.3-2.1 1.3-0.5 2.9-0.8 4.7-0.8 2.2 0 4 0.3 5.6 1 1 0.5 1.9 1.1 2.6 1.9s1.3 1.7 1.8 2.8c0.4 1 0.6 2.1 0.6 3.3 0 1.8-0.4 3.4-1.3 4.8 -0.9 1.4-1.8 2.6-2.7 3.4 -0.9 0.8-2.4 2.1-4.6 3.9 -2.1 1.8-3.6 3.1-4.4 4.1C86.8 115.5 86.4 116 86.1 116.5z"/><path class="st2" d="M126.2 106.2c0 2.3-0.1 4.3-0.4 6 -0.3 1.7-0.8 3.2-1.6 4.6 -1 1.7-2.2 3-3.8 3.9 -1.5 0.9-3.2 1.4-5.1 1.4 -2.2 0-4.1-0.6-5.8-1.8 -1.7-1.2-3-2.9-3.9-5.1 -0.4-1.2-0.8-2.5-1-3.9 -0.2-1.4-0.3-3-0.3-4.6 0-2.2 0.1-4.1 0.3-5.8 0.2-1.7 0.6-3.2 1.1-4.4 0.8-2.1 2.1-3.6 3.7-4.7 1.6-1.1 3.5-1.6 5.7-1.6 1.5 0 2.8 0.2 4 0.7 1.2 0.5 2.2 1.2 3.2 2.1 0.9 0.9 1.7 2.1 2.3 3.4C125.7 98.6 126.2 101.9 126.2 106.2zM120.4 105.8c0-2.6-0.2-4.7-0.5-6.4 -0.3-1.7-0.8-2.9-1.6-3.8 -0.7-0.8-1.8-1.3-3.1-1.3 -1.9 0-3.2 0.9-3.9 2.8 -0.7 1.9-1.1 4.8-1.1 8.8 0 2.7 0.2 4.9 0.5 6.6 0.3 1.7 0.8 3 1.6 3.9 0.7 0.9 1.7 1.3 3 1.3 1.3 0 2.3-0.5 3.1-1.4 0.7-0.9 1.3-2.2 1.6-3.9C120.2 110.8 120.4 108.6 120.4 105.8z"/></g></svg>